<?xml version="1.0" encoding="iso-8859-1"?>
<!-- Generator: Adobe Illustrator 15.0.0, SVG Export Plug-In . SVG Version: 6.00 Build 0)  -->
<!DOCTYPE svg PUBLIC "-//W3C//DTD SVG 1.1//EN" "http://www.w3.org/Graphics/SVG/1.1/DTD/svg11.dtd">
<svg version="1.1" id="Layer_1" xmlns="http://www.w3.org/2000/svg" xmlns:xlink="http://www.w3.org/1999/xlink" x="0px" y="0px"
	 width="34.56px" height="34.552px" viewBox="0 0 34.56 34.552" style="enable-background:new 0 0 34.56 34.552;"
	 xml:space="preserve">
<path style="fill-rule:evenodd;clip-rule:evenodd;fill:#444444;" d="M32.4,34.552H2.16c-1.193,0-2.16-0.967-2.16-2.16v-27
	c0-1.193,0.967-2.16,2.16-2.16h8.633V1.08c0-0.597,0.483-1.08,1.08-1.08c0.597,0,1.08,0.483,1.08,1.08v2.152h8.64V1.08
	c0-0.597,0.483-1.08,1.08-1.08s1.08,0.483,1.08,1.08v2.152H32.4c1.193,0,2.16,0.967,2.16,2.16v27
	C34.56,33.585,33.593,34.552,32.4,34.552z M32.4,5.392h-8.648V6.48c0,0.597-0.483,1.08-1.08,1.08s-1.08-0.483-1.08-1.08V5.392h-8.64
	V6.48c0,0.597-0.483,1.08-1.08,1.08c-0.597,0-1.08-0.483-1.08-1.08V5.392H2.16v27H32.4V5.392z M7.56,12.952h2.16
	c0.597,0,1.08,0.484,1.08,1.08v2.16c0,0.597-0.483,1.08-1.08,1.08H7.56c-0.596,0-1.08-0.483-1.08-1.08v-2.16
	C6.48,13.436,6.964,12.952,7.56,12.952z M7.56,21.592h2.16c0.597,0,1.08,0.484,1.08,1.08v2.16c0,0.596-0.483,1.08-1.08,1.08H7.56
	c-0.596,0-1.08-0.484-1.08-1.08v-2.16C6.48,22.076,6.964,21.592,7.56,21.592z M16.2,12.952h2.16c0.596,0,1.08,0.484,1.08,1.08v2.16
	c0,0.597-0.483,1.08-1.08,1.08H16.2c-0.596,0-1.08-0.483-1.08-1.08v-2.16C15.12,13.436,15.604,12.952,16.2,12.952z M16.2,21.592
	h2.16c0.596,0,1.08,0.484,1.08,1.08v2.16c0,0.596-0.483,1.08-1.08,1.08H16.2c-0.596,0-1.08-0.484-1.08-1.08v-2.16
	C15.12,22.076,15.604,21.592,16.2,21.592z M24.84,12.952H27c0.596,0,1.08,0.484,1.08,1.08v2.16c0,0.597-0.484,1.08-1.08,1.08h-2.16
	c-0.597,0-1.08-0.483-1.08-1.08v-2.16C23.76,13.436,24.243,12.952,24.84,12.952z M24.84,21.592H27c0.596,0,1.08,0.484,1.08,1.08
	v2.16c0,0.596-0.484,1.08-1.08,1.08h-2.16c-0.597,0-1.08-0.484-1.08-1.08v-2.16C23.76,22.076,24.243,21.592,24.84,21.592z"/>
</svg>
