<?xml version="1.0" encoding="iso-8859-1"?>
<!-- Generator: Adobe Illustrator 15.0.0, SVG Export Plug-In . SVG Version: 6.00 Build 0)  -->
<!DOCTYPE svg PUBLIC "-//W3C//DTD SVG 1.1//EN" "http://www.w3.org/Graphics/SVG/1.1/DTD/svg11.dtd">
<svg version="1.1" id="Layer_1" xmlns="http://www.w3.org/2000/svg" xmlns:xlink="http://www.w3.org/1999/xlink" x="0px" y="0px"
	 width="38.4px" height="38.426px" viewBox="0 0 38.4 38.426" style="enable-background:new 0 0 38.4 38.426;" xml:space="preserve"
	>
<path style="fill-rule:evenodd;clip-rule:evenodd;fill:#444444;" d="M37.2,20.415H16.642c-0.538,2.07-2.406,3.611-4.643,3.611
	s-4.105-1.541-4.643-3.611H1.2c-0.663,0-1.2-0.538-1.2-1.2s0.537-1.2,1.2-1.2h6.156C7.892,15.942,9.762,14.4,12,14.4
	s4.107,1.542,4.644,3.615H37.2c0.663,0,1.2,0.538,1.2,1.2S37.863,20.415,37.2,20.415z M12,16.81c-1.322,0-2.397,1.074-2.402,2.394
	c0,0.004,0.002,0.007,0.002,0.011c0,0.003-0.002,0.006-0.002,0.01c0.006,1.319,1.081,2.391,2.402,2.391
	c1.321,0,2.396-1.073,2.402-2.393c0-0.003-0.001-0.005-0.001-0.008c0-0.003,0.001-0.006,0.001-0.009
	C14.398,17.884,13.322,16.81,12,16.81z M37.2,6.015H23.843c-0.538,2.071-2.406,3.611-4.643,3.611c-2.237,0-4.105-1.541-4.643-3.611
	H1.2c-0.663,0-1.2-0.537-1.2-1.2c0-0.663,0.537-1.2,1.2-1.2h13.356C15.093,1.542,16.962,0,19.2,0c2.238,0,4.107,1.542,4.644,3.615
	H37.2c0.663,0,1.2,0.537,1.2,1.2C38.4,5.478,37.863,6.015,37.2,6.015z M19.2,2.41c-1.322,0-2.397,1.073-2.402,2.394
	c0,0.004,0.002,0.007,0.002,0.011c0,0.003-0.002,0.006-0.002,0.009c0.006,1.319,1.081,2.392,2.402,2.392
	c1.321,0,2.396-1.073,2.402-2.393c0-0.003-0.002-0.005-0.002-0.008c0-0.003,0.002-0.006,0.002-0.009
	C21.598,3.484,20.522,2.41,19.2,2.41z M1.2,32.415h20.556c0.536-2.073,2.406-3.615,4.644-3.615s4.107,1.542,4.644,3.615H37.2
	c0.663,0,1.2,0.537,1.2,1.2s-0.538,1.2-1.2,1.2h-6.158c-0.538,2.07-2.406,3.611-4.643,3.611c-2.236,0-4.105-1.541-4.643-3.611H1.2
	c-0.663,0-1.2-0.538-1.2-1.2S0.537,32.415,1.2,32.415z M26.4,36.016c1.321,0,2.396-1.073,2.402-2.393
	c0-0.003-0.001-0.005-0.001-0.008c0-0.003,0.002-0.006,0.002-0.009c-0.004-1.321-1.08-2.396-2.402-2.396
	c-1.321,0-2.397,1.074-2.402,2.394c0,0.004,0.002,0.007,0.002,0.011c0,0.003-0.002,0.006-0.002,0.01
	C24.005,34.944,25.079,36.016,26.4,36.016z"/>
</svg>
