<?xml version="1.0" encoding="iso-8859-1"?>
<!-- Generator: Adobe Illustrator 15.0.0, SVG Export Plug-In . SVG Version: 6.00 Build 0)  -->
<!DOCTYPE svg PUBLIC "-//W3C//DTD SVG 1.1//EN" "http://www.w3.org/Graphics/SVG/1.1/DTD/svg11.dtd">
<svg version="1.1" id="Layer_1" xmlns="http://www.w3.org/2000/svg" xmlns:xlink="http://www.w3.org/1999/xlink" x="0px" y="0px"
	 width="34.629px" height="34.562px" viewBox="0 0 34.629 34.562" style="enable-background:new 0 0 34.629 34.562;"
	 xml:space="preserve">
<path style="fill-rule:evenodd;clip-rule:evenodd;fill:#444444;" d="M18.365,34.509c-0.192,0.021-0.383,0.053-0.578,0.053
	c-0.057,0-0.113-0.014-0.169-0.016c-0.102,0.002-0.201,0.016-0.304,0.016C7.767,34.562,0,26.81,0,17.281S7.767,0,17.314,0
	c0.103,0,0.202,0.014,0.304,0.015C17.674,0.013,17.73,0,17.787,0c0.195,0,0.386,0.031,0.578,0.053
	C27.423,0.6,34.629,8.106,34.629,17.281S27.423,33.962,18.365,34.509z M30.452,24.816c-0.676-0.171-2.027-0.459-4.181-0.706
	c-0.64,2.826-1.655,5.258-2.949,7.055C26.325,29.866,28.827,27.624,30.452,24.816z M16.203,14.016
	c-2.451-0.025-4.553-0.123-6.3-0.26c-0.147,1.137-0.234,2.314-0.234,3.524c0,1.555,0.131,3.064,0.368,4.489
	c1.72-0.132,3.776-0.226,6.166-0.25V14.016z M18.359,21.52c2.402,0.024,4.447,0.12,6.146,0.257c0.23-1.427,0.357-2.938,0.357-4.496
	c0-1.213-0.084-2.393-0.227-3.532c-1.724,0.143-3.812,0.243-6.276,0.267V21.52z M24.062,23.902
	c-1.588-0.123-3.487-0.209-5.703-0.231v8.585C20.827,31.539,22.96,28.289,24.062,23.902z M16.203,32.227v-8.556
	c-2.195,0.023-4.099,0.107-5.708,0.225C11.616,28.227,13.763,31.451,16.203,32.227z M12.131,31.48
	c-1.588-1.831-2.901-4.392-3.72-7.401c-2.081,0.217-3.491,0.47-4.278,0.637C5.902,27.816,8.73,30.239,12.131,31.48z M2.156,17.281
	c0,1.92,0.369,3.753,1.027,5.442c0.691-0.167,2.237-0.489,4.751-0.761c-0.267-1.486-0.424-3.049-0.424-4.682
	c0-1.286,0.106-2.524,0.275-3.723c-2.924-0.323-4.506-0.712-4.922-0.826C2.406,14.168,2.156,15.695,2.156,17.281z M3.671,10.717
	c0.589,0.141,2.059,0.45,4.501,0.715c0.784-3.423,2.205-6.33,3.958-8.35C8.418,4.437,5.383,7.199,3.671,10.717z M10.264,11.623
	c1.657,0.126,3.639,0.218,5.939,0.242V2.332C13.584,3.164,11.3,6.812,10.264,11.623z M18.359,2.309v9.556
	c2.326-0.023,4.298-0.116,5.928-0.246C23.271,6.749,21.005,3.078,18.359,2.309z M23.322,3.396c1.439,1.997,2.543,4.768,3.156,8.009
	c2.732-0.323,4.103-0.708,4.427-0.809C29.314,7.392,26.623,4.824,23.322,3.396z M26.796,13.533c0.139,1.205,0.222,2.454,0.222,3.748
	c0,1.643-0.129,3.213-0.35,4.707c2.648,0.31,4.15,0.685,4.74,0.857c0.686-1.723,1.065-3.6,1.065-5.564
	c0-2.021-0.405-3.946-1.129-5.709l0.365,1.026C31.611,12.633,30.135,13.134,26.796,13.533z"/>
</svg>
