<?xml version="1.0" encoding="iso-8859-1"?>
<!-- Generator: Adobe Illustrator 15.0.0, SVG Export Plug-In . SVG Version: 6.00 Build 0)  -->
<!DOCTYPE svg PUBLIC "-//W3C//DTD SVG 1.1//EN" "http://www.w3.org/Graphics/SVG/1.1/DTD/svg11.dtd">
<svg version="1.1" id="Layer_1" xmlns="http://www.w3.org/2000/svg" xmlns:xlink="http://www.w3.org/1999/xlink" x="0px" y="0px"
	 width="38.4px" height="38.334px" viewBox="0 0 38.4 38.334" style="enable-background:new 0 0 38.4 38.334;" xml:space="preserve"
	>
<path style="fill-rule:evenodd;clip-rule:evenodd;fill:#444444;" d="M37.543,38.25c-0.095,0-0.196-0.014-0.299-0.042l-12.039-4.729
	l-11.962,4.856l-12.088-4.77C0.521,33.389,0,32.702,0,32.043V0.918C0,0.365,0.365-0.002,0.857,0c0.095,0,0.196,0.011,0.299,0.042
	l12.074,4.739L25.208,0.04l12.036,4.99C37.88,5.208,38.4,5.895,38.4,6.553v30.778C38.4,37.884,38.036,38.25,37.543,38.25z M12,6.764
	L2.4,3.218V31.42l9.6,3.911V6.764z M14.4,35.35l9.6-3.795V2.999L14.4,6.76V35.35z M36,7.174l-9.6-4.14v28.494l9.6,3.614V7.174z"/>
</svg>
