<?xml version="1.0" encoding="utf-8"?>
<!-- Generator: Adobe Illustrator 16.0.4, SVG Export Plug-In . SVG Version: 6.00 Build 0)  -->
<!DOCTYPE svg PUBLIC "-//W3C//DTD SVG 1.1//EN" "http://www.w3.org/Graphics/SVG/1.1/DTD/svg11.dtd">
<svg version="1.1" id="Layer_1" xmlns="http://www.w3.org/2000/svg" xmlns:xlink="http://www.w3.org/1999/xlink" x="0px" y="0px"
	 width="910.5px" height="910.5px" viewBox="0 0 910.5 910.5" enable-background="new 0 0 910.5 910.5" xml:space="preserve">
<g>
	<path fill="#707070" d="M565.493,74.285c12.009-5.628,26.718-4.969,38.255,1.537c94.412,53.132,188.854,106.212,283.266,159.333
		c6.361,3.881,14.061,6.559,18.172,13.192c6.172,9.236,4.728,22.773-3.525,30.284c-3.265,2.814-7.135,4.802-10.807,7.009
		c-64.42,38.496-128.87,76.92-193.269,115.427c-0.837,12.407-0.346,24.887-0.095,37.315c-0.471,9.739-0.377,19.5-0.188,29.249
		c11.005-5.89,21.466-12.752,32.293-18.976c53.258-31.844,106.588-63.593,159.846-95.458c1.559-0.785,3.316-2.187,5.125-1.193
		c6.55,2.804,11.874,8.652,13.621,15.619c2.071,7.637,0.156,16.298-5.209,22.167c-2.877,3.232-6.811,5.157-10.44,7.354
		c-60.026,35.861-120.083,71.68-180.099,107.551c-5.011,3.075-10.241,5.806-15.064,9.174c-0.418,4.466-0.052,8.944,0.032,13.422
		c-0.313,7.312-0.356,14.646,0.042,21.968c-0.21,10.263-0.607,20.557,0.031,30.819c26.529-15.285,52.629-31.332,78.991-46.919
		c38.874-23.129,77.622-46.458,116.558-69.472c5.408,2.374,10.514,6.067,13.212,11.476c4.175,7.783,3.589,17.919-1.61,25.096
		c-3.097,4.728-8.422,7.124-13.077,9.98C714.49,615.949,537.488,721.723,360.413,827.4c-7.752,4.426-15.127,10.053-24.082,11.779
		c-8.337,1.568-17.239,1.076-25.106-2.28c-4.488-1.915-8.63-4.53-12.897-6.863c-92.582-52.098-185.163-104.202-277.753-156.289
		c-5.011-2.877-10.597-5.271-14.154-10.032c-7.103-8.809-6.412-22.742,1.476-30.84c2.625-2.844,6.057-4.728,9.488-6.432
		c12.406,6.297,24.301,13.576,36.499,20.262c84.579,47.567,169.135,95.186,253.723,142.73c12.627,7.011,28.748,6.602,41.101-0.846
		c65.079-38.843,130.147-77.717,195.215-116.569c2.176-0.909,1.925-3.578,2.009-5.513c-0.136-20.617,0.157-41.237-0.146-61.855
		c-4.09,1.704-7.763,4.205-11.549,6.475c-57.203,34.134-114.393,68.279-171.573,102.445c-8.066,4.446-15.503,10.408-24.583,12.69
		c-10.472,2.699-21.958,1.285-31.383-4.029c-94.391-53.101-188.76-106.221-283.162-159.311c-5.356-3.275-11.465-5.597-15.849-10.243
		c-7.124-7.394-8.138-19.645-2.803-28.317c2.73-4.958,7.636-8.034,12.533-10.545c92.936,51.951,185.621,104.392,278.463,156.529
		c6.664,3.578,12.992,8.034,20.378,10.055c10.932,3.105,23.035,1.318,32.763-4.499c64.838-38.727,129.707-77.433,194.536-116.171
		c3.064-1.15,2.259-4.729,2.384-7.301c-0.146-20.139,0.136-40.276-0.146-60.414c-12.104,6.486-23.621,14.028-35.526,20.88
		c-51.469,30.786-102.99,61.489-154.469,92.266c-5.199,3.057-10.294,6.508-16.162,8.161c-10.953,3.181-23.224,1.987-33.162-3.725
		c-97.748-54.993-195.497-109.988-293.234-165.003c-11.267-6.005-15.116-21.718-8.516-32.481c2.072-3.735,5.388-6.611,9.049-8.735
		C191.487,297.283,369.189,191.177,546.903,85.081C553.117,81.523,559.059,77.465,565.493,74.285z"/>
	<path fill="#FEFEFE" d="M647.78,154.521c1.735-1.108,3.609-0.042,5.179,0.826c38.234,21.769,76.543,43.424,114.799,65.162
		c1.727,0.502,1.453,2.228,0.796,3.494c-6.382,15.451-9.081,32.439-7.606,49.104c0.754,11.088,3.924,21.769,7.574,32.199
		c-18.852,11.643-38.036,22.764-56.992,34.24c-13.787,8.044-27.293,16.59-41.195,24.416
		c-72.412-40.485-144.625-81.346-216.964-121.945c-13.474-7.73-27.199-15.033-40.537-22.993
		c35.924-21.383,71.784-42.88,107.813-64.064c19.488,9.237,41.186,13.38,62.683,13.16
		C605.433,168.414,627.872,164.375,647.78,154.521z"/>
	<path fill="#FEFEFE" d="M253.575,313.687c2.426-1.539,4.958-2.888,7.542-4.122c12.176,6.141,23.83,13.296,35.797,19.834
		c70.957,39.909,141.905,79.839,212.883,119.727c3.097,1.631,6.183,3.327,8.924,5.534c-43.645,26.183-87.351,52.295-131.089,78.333
		c-18.035-8.065-37.754-12.052-57.462-12.407c-20.661-0.366-41.656,2.646-60.768,10.744c-2.574,0.962-5.544,3.158-8.171,1.108
		c-39.375-22.46-78.855-44.753-118.2-67.286c1.591-6.444,4.122-12.626,5.126-19.216c4.226-21.623,0.502-44.271-8.85-64.095
		C177.25,358.878,215.538,336.502,253.575,313.687z"/>
</g>
</svg>
