<?xml version="1.0" encoding="iso-8859-1"?>
<!-- Generator: Adobe Illustrator 15.0.0, SVG Export Plug-In . SVG Version: 6.00 Build 0)  -->
<!DOCTYPE svg PUBLIC "-//W3C//DTD SVG 1.1//EN" "http://www.w3.org/Graphics/SVG/1.1/DTD/svg11.dtd">
<svg version="1.1" id="Layer_1" xmlns="http://www.w3.org/2000/svg" xmlns:xlink="http://www.w3.org/1999/xlink" x="0px" y="0px"
	 width="25.92px" height="34.56px" viewBox="0 0 25.92 34.56" style="enable-background:new 0 0 25.92 34.56;" xml:space="preserve"
	>
<path style="fill-rule:evenodd;clip-rule:evenodd;fill:#444444;" d="M15.12,33.699c-0.019,0.021-0.77,0.861-1.701,0.861
	c-0.003,0-0.08,0-0.082,0c-0.932,0-1.688-0.839-1.706-0.861C6.954,28.319,0,20.666,0,13.181C0,6.034,6,0,13.084,0
	C21.24,0,25.92,6.034,25.92,13.181C25.92,20.332,19.51,28.653,15.12,33.699z M13.084,2.16C7.163,2.16,2.16,7.207,2.16,13.181
	c0,6.365,6.073,13.333,10.507,18.419l0.566,0.649c0.039,0.038,0.094,0.082,0.143,0.115c0.049-0.034,0.103-0.077,0.142-0.115
	c6.796-7.82,10.242-14.236,10.242-19.069C23.76,7.695,20.459,2.16,13.084,2.16z M12.999,19.5c-3.579,0-6.48-2.902-6.48-6.48
	c0-3.579,2.901-6.48,6.48-6.48s6.48,2.902,6.48,6.48C19.479,16.599,16.577,19.5,12.999,19.5z M12.949,8.653
	c-2.382,0-4.32,1.938-4.32,4.32c0,2.383,1.987,4.368,4.37,4.368s4.271-1.985,4.271-4.368C17.269,10.591,15.332,8.653,12.949,8.653z"
	/>
</svg>
