<?xml version="1.0" encoding="iso-8859-1"?>
<!-- Generator: Adobe Illustrator 15.0.0, SVG Export Plug-In . SVG Version: 6.00 Build 0)  -->
<!DOCTYPE svg PUBLIC "-//W3C//DTD SVG 1.1//EN" "http://www.w3.org/Graphics/SVG/1.1/DTD/svg11.dtd">
<svg version="1.1" id="Layer_1" xmlns="http://www.w3.org/2000/svg" xmlns:xlink="http://www.w3.org/1999/xlink" x="0px" y="0px"
	 width="32px" height="32px" viewBox="0 0 32 32" style="enable-background:new 0 0 32 32;" xml:space="preserve">
<path style="fill-rule:evenodd;clip-rule:evenodd;fill:#444444;" d="M27,10c-1.659,0-3.117-0.817-4.027-2.06L9.708,14.377
	C9.884,14.888,10,15.428,10,16c0,0.457-0.081,0.89-0.195,1.31l13.191,6.723C23.907,22.806,25.354,22,27,22c2.761,0,5,2.239,5,5
	s-2.239,5-5,5s-5-2.239-5-5c0-0.401,0.06-0.786,0.149-1.16L8.903,19.09C7.987,20.245,6.588,21,5,21c-2.762,0-5-2.239-5-5
	c0-2.762,2.238-5,5-5c1.468,0,2.774,0.644,3.689,1.651l13.449-6.526C22.054,5.762,22,5.388,22,5c0-2.762,2.239-5,5-5s5,2.238,5,5
	C32,7.761,29.761,10,27,10z M27,30c1.657,0,3-1.343,3-3s-1.343-3-3-3s-3,1.343-3,3S25.343,30,27,30z M5,13c-1.657,0-3,1.343-3,3
	s1.343,3,3,3s3-1.343,3-3S6.657,13,5,13z M27,2c-1.657,0-3,1.343-3,3s1.343,3,3,3s3-1.343,3-3S28.657,2,27,2z"/>
</svg>
