<?xml version="1.0" encoding="iso-8859-1"?>
<!-- Generator: Adobe Illustrator 15.0.0, SVG Export Plug-In . SVG Version: 6.00 Build 0)  -->
<!DOCTYPE svg PUBLIC "-//W3C//DTD SVG 1.1//EN" "http://www.w3.org/Graphics/SVG/1.1/DTD/svg11.dtd">
<svg version="1.1" id="Layer_1" xmlns="http://www.w3.org/2000/svg" xmlns:xlink="http://www.w3.org/1999/xlink" x="0px" y="0px"
	 width="34.56px" height="34.56px" viewBox="0 0 34.56 34.56" style="enable-background:new 0 0 34.56 34.56;" xml:space="preserve"
	>
<path style="fill-rule:evenodd;clip-rule:evenodd;fill:#444444;" d="M33.836,16.848L16.76,33.924
	c-0.409,0.41-0.955,0.636-1.535,0.636s-1.125-0.226-1.535-0.637L0.636,20.872C0.226,20.461,0,19.916,0,19.335
	c0-0.58,0.227-1.125,0.637-1.535L17.712,0.724C18.436,0,19.543,0,20.274,0l0.479,0.002L31.931,0c1.449,0,2.628,1.18,2.628,2.629
	v11.177v0.243C34.563,15.065,34.568,16.117,33.836,16.848z M32.399,14.058v-0.251V2.629c0-0.259-0.21-0.469-0.468-0.469
	L20.753,2.162L20.268,2.16c-0.256,0-0.875,0-1.046,0.106L2.164,19.327l13.053,13.069l17.092-17.075
	C32.404,15.157,32.401,14.469,32.399,14.058z M25.92,12.96c-2.386,0-4.32-1.934-4.32-4.32s1.934-4.32,4.32-4.32
	c2.386,0,4.32,1.934,4.32,4.32S28.306,12.96,25.92,12.96z M25.92,6.48c-1.193,0-2.16,0.967-2.16,2.16s0.967,2.16,2.16,2.16
	c1.193,0,2.16-0.967,2.16-2.16S27.113,6.48,25.92,6.48z"/>
</svg>
